# xmcd
#
# Track frame offsets:
#	225
#	13104
#	27140
#	39374
#	52524
#	64350
#	76058
#	87789
#	99796
#	105397
#	117285
#	128735
#	138760
#	150914
#	166950
#
# Disc length: 2375 seconds
#
# Revision: 0
# Processed by: cddbd v1.4PL0 Copyright (c) Steve Scherf et al.
# Submitted via: EasyCDDAExtractor 5.0.5.1
#
DISCID=9d09440f
DTITLE=ZLATE TRAMPSKE CASY - disk 2
DYEAR=1900
DGENRE=Country
TTITLE0=Je na Zapad cesta dlouha
TTITLE1=Kalifornie
TTITLE2=Uz jen chvili
TTITLE3=Velka rybi skola
TTITLE4=Lakani
TTITLE5=Stara stezka
TTITLE6=Mexicka svatba
TTITLE7=Jarni kuryr
TTITLE8=Bessie
TTITLE9=Zlate hodinky
TTITLE10=Hej, jackie!
TTITLE11=Sheriff Tobbi
TTITLE12=Quadalcanal
TTITLE13=Kourovej signal
TTITLE14=Posledni pisen
EXTD=
EXTT0=
EXTT1=
EXTT2=
EXTT3=
EXTT4=
EXTT5=
EXTT6=
EXTT7=
EXTT8=
EXTT9=
EXTT10=
EXTT11=
EXTT12=
EXTT13=
EXTT14=
PLAYORDER=
